<?xml version="1.0" encoding="UTF-8"?>
<svg width="210px" height="185px" viewBox="0 0 210 185" version="1.1" xmlns="http://www.w3.org/2000/svg" xmlns:xlink="http://www.w3.org/1999/xlink">
    <title>Group 2</title>
    <defs>
        <linearGradient x1="100%" y1="100%" x2="0%" y2="0%" id="linearGradient-1">
            <stop stop-color="#C43A30" offset="0%"></stop>
            <stop stop-color="#874DA2" offset="100%"></stop>
        </linearGradient>
    </defs>
    <g id="Page-1" stroke="none" stroke-width="1" fill="none" fill-rule="evenodd">
        <g id="Login" transform="translate(-1011.000000, -86.000000)">
            <g id="Group-2" transform="translate(1011.000000, 86.000000)">
                <circle id="Oval" fill="url(#linearGradient-1)" cx="105" cy="60" r="60"></circle>
                <g id="social-network" transform="translate(69.000000, 24.000000)" fill="#FFFFFF" fill-rule="nonzero">
                    <path d="M36.421875,16.875 C31.7694375,16.875 27.984375,13.0899375 27.984375,8.4375 C27.984375,3.7850625 31.7694375,0 36.421875,0 C41.0743125,0 44.859375,3.7850625 44.859375,8.4375 C44.859375,13.0899375 41.0743125,16.875 36.421875,16.875 Z M36.421875,5.625 C34.8710625,5.625 33.609375,6.8866875 33.609375,8.4375 C33.609375,9.9883125 34.8710625,11.25 36.421875,11.25 C37.9726875,11.25 39.234375,9.9883125 39.234375,8.4375 C39.234375,6.8866875 37.9726875,5.625 36.421875,5.625 Z M48.9375,31.5 C48.9375,25.1416406 43.6919062,19.96875 37.24425,19.96875 L35.5996406,19.96875 C29.1518438,19.96875 23.90625,25.1416406 23.90625,31.5 C23.90625,33.0533437 25.1654063,34.3125 26.71875,34.3125 C28.2720937,34.3125 29.53125,33.0533437 29.53125,31.5 C29.53125,28.2432656 32.2534687,25.59375 35.5995,25.59375 L37.2441094,25.59375 C40.5902813,25.59375 43.3125,28.2432656 43.3125,31.5 C43.3125,33.0533437 44.5716563,34.3125 46.125,34.3125 C47.6783437,34.3125 48.9375,33.0533437 48.9375,31.5 Z M12.515625,54.5625 C7.8631875,54.5625 4.078125,50.7774375 4.078125,46.125 C4.078125,41.4725625 7.8631875,37.6875 12.515625,37.6875 C17.1680625,37.6875 20.953125,41.4725625 20.953125,46.125 C20.953125,50.7774375 17.1680625,54.5625 12.515625,54.5625 Z M12.515625,43.3125 C10.9648125,43.3125 9.703125,44.5741875 9.703125,46.125 C9.703125,47.6758125 10.9648125,48.9375 12.515625,48.9375 C14.0664375,48.9375 15.328125,47.6758125 15.328125,46.125 C15.328125,44.5741875 14.0664375,43.3125 12.515625,43.3125 Z M25.03125,69.1875 C25.03125,62.8291406 19.7856563,57.65625 13.338,57.65625 L11.69325,57.65625 C5.24559375,57.65625 0,62.8291406 0,69.1875 C0,70.7408437 1.25915625,72 2.8125,72 C4.36584375,72 5.625,70.7408437 5.625,69.1875 C5.625,65.9307656 8.34721875,63.28125 11.69325,63.28125 L13.3378594,63.28125 C16.6840313,63.28125 19.40625,65.9307656 19.40625,69.1875 C19.40625,70.7408437 20.6654063,72 22.21875,72 C23.7720937,72 25.03125,70.7408437 25.03125,69.1875 Z M59.484375,54.5625 C54.8319375,54.5625 51.046875,50.7774375 51.046875,46.125 C51.046875,41.4725625 54.8319375,37.6875 59.484375,37.6875 C64.1368125,37.6875 67.921875,41.4725625 67.921875,46.125 C67.921875,50.7774375 64.1368125,54.5625 59.484375,54.5625 Z M59.484375,43.3125 C57.9335625,43.3125 56.671875,44.5741875 56.671875,46.125 C56.671875,47.6758125 57.9335625,48.9375 59.484375,48.9375 C61.0351875,48.9375 62.296875,47.6758125 62.296875,46.125 C62.296875,44.5741875 61.0351875,43.3125 59.484375,43.3125 Z M72,69.1875 C72,62.8291406 66.7544062,57.65625 60.30675,57.65625 L58.6621406,57.65625 C52.2143438,57.65625 46.96875,62.8291406 46.96875,69.1875 C46.96875,70.7408437 48.2279063,72 49.78125,72 C51.3345937,72 52.59375,70.7408437 52.59375,69.1875 C52.59375,65.9307656 55.3159687,63.28125 58.662,63.28125 L60.3066094,63.28125 C63.6527813,63.28125 66.375,65.9307656 66.375,69.1875 C66.375,70.7408437 67.6341563,72 69.1875,72 C70.7408437,72 72,70.7408437 72,69.1875 Z M61.8471563,32.9068125 C60.5770313,32.9068125 59.4248906,32.0404219 59.1148125,30.7511719 C57.8044688,25.3004063 54.5570156,20.4882188 49.9709531,17.2009688 C48.7084219,16.2960469 48.4185938,14.5390781 49.3235156,13.2765469 C50.2287188,12.013875 51.9858281,11.7241875 53.2479375,12.6291094 C58.932,16.7032969 62.9579531,22.672125 64.5841406,29.4361875 C64.9472344,30.9465 64.0172813,32.4651094 62.5069688,32.8282031 C62.2860469,32.8815 62.0648438,32.9068125 61.8471563,32.9068125 Z M13.5883125,30.7511719 C14.8857188,25.3549688 18.0884531,20.5747031 22.6065938,17.2911094 C23.8632188,16.3778906 24.1415156,14.6190938 23.2282969,13.3624688 C22.3149375,12.1059844 20.5558594,11.8276875 19.2996563,12.7409063 C13.6998281,16.8107344 9.729,22.7399063 8.11898438,29.4363281 C7.75589063,30.9466406 8.68584375,32.46525 10.1961563,32.8283438 C10.4172188,32.8815 10.6382813,32.9069531 10.8559688,32.9069531 C12.1259531,32.9069531 13.2782344,32.0404219 13.5883125,30.7511719 L13.5883125,30.7511719 Z M44.9924062,61.0396875 C46.4754375,60.577875 47.3034375,59.0011875 46.8414844,57.5181562 C46.3796719,56.0352656 44.8035469,55.2069844 43.3199531,55.6689375 C40.8490312,56.4384375 38.5695,56.8125 36.3515625,56.8125 C34.018875,56.8125 31.5478125,56.3871094 29.0068594,55.548 C27.5317031,55.0611563 25.9412344,55.861875 25.4543906,57.3368906 C24.9672656,58.8119062 25.768125,60.402375 27.2432813,60.8895 C30.3541875,61.916625 33.4186875,62.4375 36.3515625,62.4375 C39.1452187,62.4375 41.9717812,61.9803281 44.9924062,61.0396875 Z" id="Shape"></path>
                </g>
                <path d="M17.9590905,170 L17.9590905,165.385742 L13.4239343,164.594727 L13.4239343,156.447266 L12.9756921,140.152344 L13.1338952,140.125977 L24.8672936,169.472656 L30.6944421,169.472656 L42.1641686,139.888672 L42.3223718,139.915039 L42.1905358,157.238281 L42.1905358,164.594727 L37.8926843,165.385742 L37.8926843,170 L53.7920983,170 L53.7920983,165.385742 L49.6788171,164.594727 L49.6788171,137.041016 L53.7920983,136.25 L53.7920983,131.609375 L38.2881921,131.609375 L28.1631921,158.37207 L28.0049889,158.37207 L17.5372155,131.609375 L2.05967644,131.609375 L2.05967644,136.25 L6.1465905,137.041016 L6.1465905,164.594727 L2.05967644,165.385742 L2.05967644,170 L17.9590905,170 Z M68.8186529,170.553711 C70.523731,170.553711 72.0530279,170.193359 73.4065435,169.472656 C74.7600591,168.751953 75.8850591,167.723633 76.7815435,166.387695 L76.7815435,166.387695 L77.3088873,170 L87.4866216,170 L87.4866216,165.385742 L84.0588873,164.594727 L84.0588873,141.470703 L72.9583013,141.470703 L72.9583013,146.111328 L76.3596685,146.902344 L76.3596685,161.984375 C75.7971685,162.810547 75.0764654,163.447754 74.1975591,163.895996 C73.3186529,164.344238 72.3079107,164.568359 71.1653326,164.568359 C69.7239263,164.568359 68.6472662,164.124512 67.9353521,163.236816 C67.2234381,162.349121 66.867481,160.885742 66.867481,158.84668 L66.867481,158.84668 L66.867481,141.470703 L56.030567,141.470703 L56.030567,146.111328 L59.1682623,146.902344 L59.1682623,158.793945 C59.1682623,162.819336 60.0251959,165.785645 61.7390631,167.692871 C63.4529302,169.600098 65.8127935,170.553711 68.8186529,170.553711 Z M105.036895,170 L105.036895,165.385742 L101.319121,164.594727 L101.319121,128.867188 L89.5066212,128.867188 L89.5066212,133.507812 L93.6199024,134.298828 L93.6199024,164.594727 L89.902129,165.385742 L89.902129,170 L105.036895,170 Z M118.747832,170.553711 C119.644316,170.553711 120.553984,170.479004 121.476836,170.32959 C122.399688,170.180176 123.256621,169.991211 124.047637,169.762695 L124.047637,169.762695 L123.388457,164.199219 C123.036895,164.269531 122.61502,164.335449 122.122832,164.396973 C121.630645,164.458496 121.173613,164.489258 120.751738,164.489258 C119.943145,164.489258 119.305938,164.251953 118.840117,163.777344 C118.374297,163.302734 118.141387,162.511719 118.141387,161.404297 L118.141387,161.404297 L118.141387,146.875977 L123.388457,146.875977 L123.388457,141.470703 L118.141387,141.470703 L118.141387,134.483398 L110.468535,134.483398 L110.468535,141.470703 L106.539824,141.470703 L106.539824,146.875977 L110.468535,146.875977 L110.468535,161.430664 C110.468535,164.594727 111.184844,166.90625 112.617461,168.365234 C114.050078,169.824219 116.093535,170.553711 118.747832,170.553711 Z M139.022487,170.553711 C140.727565,170.553711 142.256862,170.193359 143.610378,169.472656 C144.963893,168.751953 146.088893,167.723633 146.985378,166.387695 L146.985378,166.387695 L147.512721,170 L157.690456,170 L157.690456,165.385742 L154.262721,164.594727 L154.262721,141.470703 L143.162135,141.470703 L143.162135,146.111328 L146.563503,146.902344 L146.563503,161.984375 C146.001003,162.810547 145.280299,163.447754 144.401393,163.895996 C143.522487,164.344238 142.511745,164.568359 141.369167,164.568359 C139.92776,164.568359 138.8511,164.124512 138.139186,163.236816 C137.427272,162.349121 137.071315,160.885742 137.071315,158.84668 L137.071315,158.84668 L137.071315,141.470703 L126.234401,141.470703 L126.234401,146.111328 L129.372096,146.902344 L129.372096,158.793945 C129.372096,162.819336 130.22903,165.785645 131.942897,167.692871 C133.656764,169.600098 136.016628,170.553711 139.022487,170.553711 Z M174.95069,170 L174.95069,165.385742 L171.628424,164.594727 L171.628424,149.486328 C172.13819,148.660156 172.78858,148.027344 173.579596,147.587891 C174.370611,147.148438 175.311041,146.928711 176.400885,146.928711 C177.754401,146.928711 178.778326,147.350586 179.472662,148.194336 C180.166998,149.038086 180.514166,150.488281 180.514166,152.544922 L180.514166,152.544922 L180.514166,164.594727 L177.402838,165.385742 L177.402838,170 L191.298346,170 L191.298346,165.385742 L188.187018,164.594727 L188.187018,150.620117 C188.556158,149.512695 189.153815,148.620605 189.979986,147.943848 C190.806158,147.26709 191.816901,146.928711 193.012213,146.928711 C194.330572,146.928711 195.33692,147.337402 196.031256,148.154785 C196.725592,148.972168 197.07276,150.435547 197.07276,152.544922 L197.07276,152.544922 L197.07276,164.594727 L193.750494,165.385742 L193.750494,170 L208.489752,170 L208.489752,165.385742 L204.771979,164.594727 L204.771979,152.571289 C204.771979,148.651367 203.95899,145.733398 202.333014,143.817383 C200.707037,141.901367 198.487799,140.943359 195.675299,140.943359 C193.776861,140.943359 192.124518,141.374023 190.718268,142.235352 C189.312018,143.09668 188.16944,144.291992 187.290533,145.821289 C186.640143,144.186523 185.660162,142.964844 184.350592,142.15625 C183.041022,141.347656 181.472174,140.943359 179.644049,140.943359 C177.833502,140.943359 176.238287,141.316895 174.858404,142.063965 C173.478522,142.811035 172.331549,143.870117 171.417486,145.241211 L171.417486,145.241211 L171.10108,141.470703 L159.842291,141.470703 L159.842291,146.111328 L163.955572,146.902344 L163.955572,164.594727 L160.237799,165.385742 L160.237799,170 L174.95069,170 Z" id="Multum" fill="#3A3A3A" fill-rule="nonzero"></path>
            </g>
        </g>
    </g>
</svg>