<?xml version="1.0" encoding="UTF-8"?>
<svg width="59px" height="58px" viewBox="0 0 59 58" version="1.1" xmlns="http://www.w3.org/2000/svg" xmlns:xlink="http://www.w3.org/1999/xlink">
    <title>Group</title>
    <defs>
        <linearGradient x1="100%" y1="100%" x2="0%" y2="0%" id="linearGradient-1">
            <stop stop-color="#C43A30" offset="0%"></stop>
            <stop stop-color="#874DA2" offset="100%"></stop>
        </linearGradient>
    </defs>
    <g id="Page-1" stroke="none" stroke-width="1" fill="none" fill-rule="evenodd">
        <g id="Campaigns-Copy-28" transform="translate(-22.000000, -14.000000)">
            <g id="Group-2" transform="translate(22.000000, 14.000000)">
                <g id="Group" transform="translate(0.600000, 0.000000)">
                    <circle id="Oval" fill="url(#linearGradient-1)" cx="28.8" cy="28.8" r="28.8"></circle>
                    <g id="social-network" transform="translate(11.520000, 11.520000)" fill="#FFFFFF" fill-rule="nonzero">
                        <path d="M17.4825,8.1 C15.24933,8.1 13.4325,6.28317 13.4325,4.05 C13.4325,1.81683 15.24933,0 17.4825,0 C19.71567,0 21.5325,1.81683 21.5325,4.05 C21.5325,6.28317 19.71567,8.1 17.4825,8.1 Z M17.4825,2.7 C16.73811,2.7 16.1325,3.30561 16.1325,4.05 C16.1325,4.79439 16.73811,5.4 17.4825,5.4 C18.22689,5.4 18.8325,4.79439 18.8325,4.05 C18.8325,3.30561 18.22689,2.7 17.4825,2.7 Z M23.49,15.12 C23.49,12.0679875 20.972115,9.585 17.87724,9.585 L17.0878275,9.585 C13.992885,9.585 11.475,12.0679875 11.475,15.12 C11.475,15.865605 12.079395,16.47 12.825,16.47 C13.570605,16.47 14.175,15.865605 14.175,15.12 C14.175,13.5567675 15.481665,12.285 17.08776,12.285 L17.8771725,12.285 C19.483335,12.285 20.79,13.5567675 20.79,15.12 C20.79,15.865605 21.394395,16.47 22.14,16.47 C22.885605,16.47 23.49,15.865605 23.49,15.12 Z M6.0075,26.19 C3.77433,26.19 1.9575,24.37317 1.9575,22.14 C1.9575,19.90683 3.77433,18.09 6.0075,18.09 C8.24067,18.09 10.0575,19.90683 10.0575,22.14 C10.0575,24.37317 8.24067,26.19 6.0075,26.19 Z M6.0075,20.79 C5.26311,20.79 4.6575,21.39561 4.6575,22.14 C4.6575,22.88439 5.26311,23.49 6.0075,23.49 C6.75189,23.49 7.3575,22.88439 7.3575,22.14 C7.3575,21.39561 6.75189,20.79 6.0075,20.79 Z M12.015,33.21 C12.015,30.1579875 9.497115,27.675 6.40224,27.675 L5.61276,27.675 C2.517885,27.675 0,30.1579875 0,33.21 C0,33.955605 0.604395,34.56 1.35,34.56 C2.095605,34.56 2.7,33.955605 2.7,33.21 C2.7,31.6467675 4.006665,30.375 5.61276,30.375 L6.4021725,30.375 C8.008335,30.375 9.315,31.6467675 9.315,33.21 C9.315,33.955605 9.919395,34.56 10.665,34.56 C11.410605,34.56 12.015,33.955605 12.015,33.21 Z M28.5525,26.19 C26.31933,26.19 24.5025,24.37317 24.5025,22.14 C24.5025,19.90683 26.31933,18.09 28.5525,18.09 C30.78567,18.09 32.6025,19.90683 32.6025,22.14 C32.6025,24.37317 30.78567,26.19 28.5525,26.19 Z M28.5525,20.79 C27.80811,20.79 27.2025,21.39561 27.2025,22.14 C27.2025,22.88439 27.80811,23.49 28.5525,23.49 C29.29689,23.49 29.9025,22.88439 29.9025,22.14 C29.9025,21.39561 29.29689,20.79 28.5525,20.79 Z M34.56,33.21 C34.56,30.1579875 32.042115,27.675 28.94724,27.675 L28.1578275,27.675 C25.062885,27.675 22.545,30.1579875 22.545,33.21 C22.545,33.955605 23.149395,34.56 23.895,34.56 C24.640605,34.56 25.245,33.955605 25.245,33.21 C25.245,31.6467675 26.551665,30.375 28.15776,30.375 L28.9471725,30.375 C30.553335,30.375 31.86,31.6467675 31.86,33.21 C31.86,33.955605 32.464395,34.56 33.21,34.56 C33.955605,34.56 34.56,33.955605 34.56,33.21 Z M29.686635,15.79527 C29.076975,15.79527 28.5239475,15.3794025 28.37511,14.7605625 C27.746145,12.144195 26.1873675,9.834345 23.9860575,8.256465 C23.3800425,7.8221025 23.240925,6.9787575 23.6752875,6.3727425 C24.109785,5.76666 24.9531975,5.62761 25.55901,6.0619725 C28.28736,8.0175825 30.2198175,10.88262 31.0003875,14.12937 C31.1746725,14.85432 30.728295,15.5832525 30.003345,15.7575375 C29.8973025,15.78312 29.791125,15.79527 29.686635,15.79527 Z M6.52239,14.7605625 C7.145145,12.170385 8.6824575,9.8758575 10.851165,8.2997325 C11.454345,7.8613875 11.5879275,7.017165 11.1495825,6.413985 C10.71117,5.8108725 9.8668125,5.67729 9.263835,6.115635 C6.5759175,8.0691525 4.66992,10.915155 3.8971125,14.1294375 C3.7228275,14.8543875 4.169205,15.58332 4.894155,15.757605 C5.000265,15.78312 5.106375,15.7953375 5.210865,15.7953375 C5.8204575,15.7953375 6.3735525,15.3794025 6.52239,14.7605625 L6.52239,14.7605625 Z M21.596355,29.29905 C22.30821,29.07738 22.70565,28.32057 22.4839125,27.608715 C22.2622425,26.8969275 21.5057025,26.4993525 20.7935775,26.72109 C19.607535,27.09045 18.51336,27.27 17.44875,27.27 C16.32906,27.27 15.14295,27.0658125 13.9232925,26.66304 C13.2152175,26.429355 12.4517925,26.8137 12.2181075,27.5217075 C11.9842875,28.229715 12.3687,28.99314 13.076775,29.22696 C14.57001,29.71998 16.04097,29.97 17.44875,29.97 C18.789705,29.97 20.146455,29.7505575 21.596355,29.29905 Z" id="Shape"></path>
                    </g>
                </g>
            </g>
        </g>
    </g>
</svg>