<?xml version="1.0" encoding="UTF-8"?>
<svg width="167px" height="58px" viewBox="0 0 167 58" version="1.1" xmlns="http://www.w3.org/2000/svg" xmlns:xlink="http://www.w3.org/1999/xlink">
    <title>Group 2</title>
    <defs>
        <linearGradient x1="100%" y1="100%" x2="0%" y2="0%" id="linearGradient-1">
            <stop stop-color="#C43A30" offset="0%"></stop>
            <stop stop-color="#874DA2" offset="100%"></stop>
        </linearGradient>
    </defs>
    <g id="Page-1" stroke="none" stroke-width="1" fill="none" fill-rule="evenodd">
        <g id="Campaigns" transform="translate(-22.000000, -14.000000)">
            <g id="Group-2" transform="translate(22.000000, 14.000000)">
                <circle id="Oval" fill="url(#linearGradient-1)" cx="29.4" cy="28.8" r="28.8"></circle>
                <g id="social-network" transform="translate(12.120000, 11.520000)" fill="#FFFFFF" fill-rule="nonzero">
                    <path d="M17.4825,8.1 C15.24933,8.1 13.4325,6.28317 13.4325,4.05 C13.4325,1.81683 15.24933,0 17.4825,0 C19.71567,0 21.5325,1.81683 21.5325,4.05 C21.5325,6.28317 19.71567,8.1 17.4825,8.1 Z M17.4825,2.7 C16.73811,2.7 16.1325,3.30561 16.1325,4.05 C16.1325,4.79439 16.73811,5.4 17.4825,5.4 C18.22689,5.4 18.8325,4.79439 18.8325,4.05 C18.8325,3.30561 18.22689,2.7 17.4825,2.7 Z M23.49,15.12 C23.49,12.0679875 20.972115,9.585 17.87724,9.585 L17.0878275,9.585 C13.992885,9.585 11.475,12.0679875 11.475,15.12 C11.475,15.865605 12.079395,16.47 12.825,16.47 C13.570605,16.47 14.175,15.865605 14.175,15.12 C14.175,13.5567675 15.481665,12.285 17.08776,12.285 L17.8771725,12.285 C19.483335,12.285 20.79,13.5567675 20.79,15.12 C20.79,15.865605 21.394395,16.47 22.14,16.47 C22.885605,16.47 23.49,15.865605 23.49,15.12 Z M6.0075,26.19 C3.77433,26.19 1.9575,24.37317 1.9575,22.14 C1.9575,19.90683 3.77433,18.09 6.0075,18.09 C8.24067,18.09 10.0575,19.90683 10.0575,22.14 C10.0575,24.37317 8.24067,26.19 6.0075,26.19 Z M6.0075,20.79 C5.26311,20.79 4.6575,21.39561 4.6575,22.14 C4.6575,22.88439 5.26311,23.49 6.0075,23.49 C6.75189,23.49 7.3575,22.88439 7.3575,22.14 C7.3575,21.39561 6.75189,20.79 6.0075,20.79 Z M12.015,33.21 C12.015,30.1579875 9.497115,27.675 6.40224,27.675 L5.61276,27.675 C2.517885,27.675 0,30.1579875 0,33.21 C0,33.955605 0.604395,34.56 1.35,34.56 C2.095605,34.56 2.7,33.955605 2.7,33.21 C2.7,31.6467675 4.006665,30.375 5.61276,30.375 L6.4021725,30.375 C8.008335,30.375 9.315,31.6467675 9.315,33.21 C9.315,33.955605 9.919395,34.56 10.665,34.56 C11.410605,34.56 12.015,33.955605 12.015,33.21 Z M28.5525,26.19 C26.31933,26.19 24.5025,24.37317 24.5025,22.14 C24.5025,19.90683 26.31933,18.09 28.5525,18.09 C30.78567,18.09 32.6025,19.90683 32.6025,22.14 C32.6025,24.37317 30.78567,26.19 28.5525,26.19 Z M28.5525,20.79 C27.80811,20.79 27.2025,21.39561 27.2025,22.14 C27.2025,22.88439 27.80811,23.49 28.5525,23.49 C29.29689,23.49 29.9025,22.88439 29.9025,22.14 C29.9025,21.39561 29.29689,20.79 28.5525,20.79 Z M34.56,33.21 C34.56,30.1579875 32.042115,27.675 28.94724,27.675 L28.1578275,27.675 C25.062885,27.675 22.545,30.1579875 22.545,33.21 C22.545,33.955605 23.149395,34.56 23.895,34.56 C24.640605,34.56 25.245,33.955605 25.245,33.21 C25.245,31.6467675 26.551665,30.375 28.15776,30.375 L28.9471725,30.375 C30.553335,30.375 31.86,31.6467675 31.86,33.21 C31.86,33.955605 32.464395,34.56 33.21,34.56 C33.955605,34.56 34.56,33.955605 34.56,33.21 Z M29.686635,15.79527 C29.076975,15.79527 28.5239475,15.3794025 28.37511,14.7605625 C27.746145,12.144195 26.1873675,9.834345 23.9860575,8.256465 C23.3800425,7.8221025 23.240925,6.9787575 23.6752875,6.3727425 C24.109785,5.76666 24.9531975,5.62761 25.55901,6.0619725 C28.28736,8.0175825 30.2198175,10.88262 31.0003875,14.12937 C31.1746725,14.85432 30.728295,15.5832525 30.003345,15.7575375 C29.8973025,15.78312 29.791125,15.79527 29.686635,15.79527 Z M6.52239,14.7605625 C7.145145,12.170385 8.6824575,9.8758575 10.851165,8.2997325 C11.454345,7.8613875 11.5879275,7.017165 11.1495825,6.413985 C10.71117,5.8108725 9.8668125,5.67729 9.263835,6.115635 C6.5759175,8.0691525 4.66992,10.915155 3.8971125,14.1294375 C3.7228275,14.8543875 4.169205,15.58332 4.894155,15.757605 C5.000265,15.78312 5.106375,15.7953375 5.210865,15.7953375 C5.8204575,15.7953375 6.3735525,15.3794025 6.52239,14.7605625 L6.52239,14.7605625 Z M21.596355,29.29905 C22.30821,29.07738 22.70565,28.32057 22.4839125,27.608715 C22.2622425,26.8969275 21.5057025,26.4993525 20.7935775,26.72109 C19.607535,27.09045 18.51336,27.27 17.44875,27.27 C16.32906,27.27 15.14295,27.0658125 13.9232925,26.66304 C13.2152175,26.429355 12.4517925,26.8137 12.2181075,27.5217075 C11.9842875,28.229715 12.3687,28.99314 13.076775,29.22696 C14.57001,29.71998 16.04097,29.97 17.44875,29.97 C18.789705,29.97 20.146455,29.7505575 21.596355,29.29905 Z" id="Shape"></path>
                </g>
                <path d="M74.6203634,38.24 L74.6203634,36.0251563 L72.4434884,35.6454688 L72.4434884,31.7346875 L72.2283322,23.913125 L72.3042697,23.9004688 L77.9363009,37.986875 L80.7333322,37.986875 L86.2388009,23.7865625 L86.3147384,23.7992188 L86.2514572,32.114375 L86.2514572,35.6454688 L84.1884884,36.0251563 L84.1884884,38.24 L91.8202072,38.24 L91.8202072,36.0251563 L89.8458322,35.6454688 L89.8458322,22.4196875 L91.8202072,22.04 L91.8202072,19.8125 L84.3783322,19.8125 L79.5183322,32.6585938 L79.4423947,32.6585938 L74.4178634,19.8125 L66.9886447,19.8125 L66.9886447,22.04 L68.9503634,22.4196875 L68.9503634,35.6454688 L66.9886447,36.0251563 L66.9886447,38.24 L74.6203634,38.24 Z M99.0329534,38.5057813 C99.8513909,38.5057813 100.585453,38.3328125 101.235141,37.986875 C101.884828,37.6409375 102.424828,37.1473438 102.855141,36.5060938 L102.855141,36.5060938 L103.108266,38.24 L107.993578,38.24 L107.993578,36.0251563 L106.348266,35.6454688 L106.348266,24.5459375 L101.019985,24.5459375 L101.019985,26.7734375 L102.652641,27.153125 L102.652641,34.3925 C102.382641,34.7890625 102.036703,35.0949219 101.614828,35.3100781 C101.192953,35.5252344 100.707797,35.6328125 100.15936,35.6328125 C99.4674846,35.6328125 98.9506878,35.4197656 98.608969,34.9936719 C98.2672503,34.5675781 98.0963909,33.8651563 98.0963909,32.8864063 L98.0963909,32.8864063 L98.0963909,24.5459375 L92.8946721,24.5459375 L92.8946721,26.7734375 L94.4007659,27.153125 L94.4007659,32.8610938 C94.4007659,34.7932813 94.812094,36.2171094 95.6347503,37.1325781 C96.4574065,38.0480469 97.5901409,38.5057813 99.0329534,38.5057813 Z M116.417709,38.24 L116.417709,36.0251563 L114.633178,35.6454688 L114.633178,18.49625 L108.963178,18.49625 L108.963178,20.72375 L110.937553,21.1034375 L110.937553,35.6454688 L109.153022,36.0251563 L109.153022,38.24 L116.417709,38.24 Z M122.998959,38.5057813 C123.429272,38.5057813 123.865913,38.4699219 124.308881,38.3982031 C124.75185,38.3264844 125.163178,38.2357813 125.542866,38.1260938 L125.542866,38.1260938 L125.226459,35.455625 C125.057709,35.489375 124.855209,35.5210156 124.618959,35.5505469 C124.382709,35.5800781 124.163334,35.5948438 123.960834,35.5948438 C123.572709,35.5948438 123.26685,35.4809375 123.043256,35.253125 C122.819663,35.0253125 122.707866,34.645625 122.707866,34.1140625 L122.707866,34.1140625 L122.707866,27.1404688 L125.226459,27.1404688 L125.226459,24.5459375 L122.707866,24.5459375 L122.707866,21.1920313 L119.024897,21.1920313 L119.024897,24.5459375 L117.139116,24.5459375 L117.139116,27.1404688 L119.024897,27.1404688 L119.024897,34.1267188 C119.024897,35.6454688 119.368725,36.755 120.056381,37.4553125 C120.744038,38.155625 121.724897,38.5057813 122.998959,38.5057813 Z M132.730794,38.5057813 C133.549231,38.5057813 134.283294,38.3328125 134.932981,37.986875 C135.582669,37.6409375 136.122669,37.1473438 136.552981,36.5060938 L136.552981,36.5060938 L136.806106,38.24 L141.691419,38.24 L141.691419,36.0251563 L140.046106,35.6454688 L140.046106,24.5459375 L134.717825,24.5459375 L134.717825,26.7734375 L136.350481,27.153125 L136.350481,34.3925 C136.080481,34.7890625 135.734544,35.0949219 135.312669,35.3100781 C134.890794,35.5252344 134.405637,35.6328125 133.8572,35.6328125 C133.165325,35.6328125 132.648528,35.4197656 132.306809,34.9936719 C131.965091,34.5675781 131.794231,33.8651563 131.794231,32.8864063 L131.794231,32.8864063 L131.794231,24.5459375 L126.592512,24.5459375 L126.592512,26.7734375 L128.098606,27.153125 L128.098606,32.8610938 C128.098606,34.7932813 128.509934,36.2171094 129.332591,37.1325781 C130.155247,38.0480469 131.287981,38.5057813 132.730794,38.5057813 Z M149.976331,38.24 L149.976331,36.0251563 L148.381644,35.6454688 L148.381644,28.3934375 C148.626331,27.996875 148.938519,27.693125 149.318206,27.4821875 C149.697894,27.27125 150.1493,27.1657813 150.672425,27.1657813 C151.322112,27.1657813 151.813597,27.3682813 152.146878,27.7732813 C152.480159,28.1782813 152.6468,28.874375 152.6468,29.8615625 L152.6468,29.8615625 L152.6468,35.6454688 L151.153362,36.0251563 L151.153362,38.24 L157.823206,38.24 L157.823206,36.0251563 L156.329769,35.6454688 L156.329769,28.9376563 C156.506956,28.4060938 156.793831,27.9778906 157.190394,27.6530469 C157.586956,27.3282031 158.072112,27.1657813 158.645862,27.1657813 C159.278675,27.1657813 159.761722,27.3619531 160.095003,27.7542969 C160.428284,28.1466406 160.594925,28.8490625 160.594925,29.8615625 L160.594925,29.8615625 L160.594925,35.6454688 L159.000237,36.0251563 L159.000237,38.24 L166.075081,38.24 L166.075081,36.0251563 L164.29055,35.6454688 L164.29055,29.8742188 C164.29055,27.9926563 163.900315,26.5920313 163.119847,25.6723438 C162.339378,24.7526563 161.274144,24.2928125 159.924144,24.2928125 C159.012894,24.2928125 158.219769,24.4995313 157.544769,24.9129688 C156.869769,25.3264063 156.321331,25.9001563 155.899456,26.6342188 C155.587269,25.8495313 155.116878,25.263125 154.488284,24.875 C153.85969,24.486875 153.106644,24.2928125 152.229144,24.2928125 C151.360081,24.2928125 150.594378,24.4721094 149.932034,24.8307031 C149.26969,25.1892969 148.719144,25.6976563 148.280394,26.3557813 L148.280394,26.3557813 L148.128519,24.5459375 L142.7243,24.5459375 L142.7243,26.7734375 L144.698675,27.153125 L144.698675,35.6454688 L142.914144,36.0251563 L142.914144,38.24 L149.976331,38.24 Z" id="Multum" fill="#FFFFFF" fill-rule="nonzero"></path>
            </g>
        </g>
    </g>
</svg>